<svg width="344" height="344" viewBox="0 0 344 344" fill="none" xmlns="http://www.w3.org/2000/svg">
<g clip-path="url(#clip0_163_729)">
<path d="M60.8192 304.234C122.877 340.835 223.531 340.835 285.589 304.234C347.646 267.632 347.646 208.189 285.589 171.587C223.531 134.986 122.877 134.986 60.8192 171.587C-1.2384 208.189 -1.2384 267.632 60.8192 304.234Z" fill="#F5F5F5"/>
<path d="M157.346 128.45L29.3776 202.341V208.464L146.682 276.163L274.581 202.341V196.149L157.346 128.45Z" fill="#006C49"/>
<path opacity="0.15" d="M29.3776 202.341L146.682 269.971V276.163L29.3776 208.464V202.341Z" fill="black"/>
<path opacity="0.1" d="M146.682 269.971L274.581 196.149V202.341L146.682 276.163V269.971Z" fill="black"/>
<path d="M258.986 184.288L264.03 174.349L263.233 173.944L258.188 183.883L258.986 184.288Z" fill="#455A64"/>
<path d="M258.017 181.628L258.778 181.157L253.852 173.201L253.092 173.672L258.017 181.628Z" fill="#455A64"/>
<path d="M259.307 172.275V196.286C259.307 196.424 259.238 196.562 259.101 196.63C258.757 196.837 258.344 196.837 258 196.63C257.862 196.562 257.794 196.424 257.794 196.286V172.275H259.307Z" fill="#455A64"/>
<path d="M277.47 164.776C277.47 170.968 272.448 175.922 266.325 175.922C260.133 175.922 255.179 170.899 255.179 164.776C255.179 158.584 260.202 153.63 266.325 153.63C272.448 153.63 277.47 158.653 277.47 164.776Z" fill="#006C49"/>
<path opacity="0.2" d="M269.834 161.955C271.278 157.414 272.792 155.626 271.829 155.075C266.462 152.048 259.651 153.906 256.624 159.272C253.597 164.638 255.454 171.45 260.821 174.477C265.499 177.16 271.485 176.059 274.925 171.862C271.554 172.826 267.907 167.803 269.834 161.955Z" fill="black"/>
<path d="M256.624 167.941C256.624 172.275 253.115 175.784 248.781 175.784C244.446 175.784 240.938 172.275 240.938 167.941C240.938 163.606 244.446 160.098 248.781 160.098C253.046 160.098 256.624 163.606 256.624 167.941Z" fill="#006C49"/>
<path opacity="0.2" d="M248.781 160.098C247.13 160.098 245.547 160.648 244.171 161.611C243.965 166.358 248.024 171.037 246.854 172.619C245.685 174.202 242.933 173.238 241.901 171.862C244.102 175.578 248.85 176.885 252.634 174.683C256.349 172.482 257.656 167.734 255.454 163.95C254.147 161.611 251.533 160.098 248.781 160.098Z" fill="black"/>
<path d="M258.55 173.858C266.492 173.858 272.93 167.42 272.93 159.478C272.93 151.537 266.492 145.099 258.55 145.099C250.609 145.099 244.171 151.537 244.171 159.478C244.171 167.42 250.609 173.858 258.55 173.858Z" fill="#006C49"/>
<path opacity="0.1" d="M272.517 162.781C270.728 170.486 262.954 175.302 255.248 173.514C247.542 171.725 242.726 163.95 244.515 156.245C245.41 152.323 247.955 148.952 251.464 146.957C250.226 147.645 249.125 148.539 248.162 149.571C246.373 157.277 251.189 165.051 258.894 166.84C263.848 168.01 269.077 166.427 272.586 162.712L272.517 162.781Z" fill="black"/>
<path d="M45.8538 190.464L50.8983 180.526L50.1008 180.121L45.0563 190.059L45.8538 190.464Z" fill="#455A64"/>
<path d="M44.8503 187.738L45.6108 187.268L40.6854 179.311L39.9249 179.782L44.8503 187.738Z" fill="#455A64"/>
<path d="M46.1648 178.398V202.41C46.1648 202.547 46.096 202.685 45.9584 202.754C45.6144 202.891 45.2016 202.891 44.8576 202.754C44.72 202.685 44.6512 202.547 44.6512 202.41V178.398H46.1648Z" fill="#455A64"/>
<path d="M64.328 170.899C64.328 177.091 59.3056 182.045 53.1824 182.045C46.9904 182.045 42.0368 177.022 42.0368 170.899C42.0368 164.707 47.0592 159.754 53.1824 159.754C59.3056 159.754 64.328 164.707 64.328 170.899Z" fill="#006C49"/>
<path opacity="0.2" d="M56.6912 168.01C58.136 163.469 59.6496 161.68 58.6864 161.198C57.0352 160.235 55.1088 159.754 53.1824 159.754C46.9904 159.754 42.0368 164.776 42.0368 170.899C42.0368 177.091 47.0592 182.045 53.1824 182.045C56.4848 182.045 59.6496 180.531 61.7824 177.986C58.48 178.949 54.8336 173.926 56.6912 168.01Z" fill="black"/>
<path d="M43.4816 174.064C43.4816 178.398 39.9728 181.907 35.6384 181.907C31.304 181.907 27.7952 178.398 27.7952 174.064C27.7952 169.73 31.304 166.221 35.6384 166.221C39.904 166.221 43.4128 169.73 43.4816 174.064Z" fill="#006C49"/>
<path opacity="0.2" d="M35.6384 166.221C33.9872 166.221 32.4048 166.702 31.0288 167.666C30.8224 172.482 34.8816 177.16 33.712 178.674C32.6112 180.256 29.7904 179.293 28.7584 177.986C30.96 181.701 35.7072 183.008 39.4912 180.806C43.2064 178.605 44.5136 173.858 42.312 170.074C41.0048 167.734 38.3904 166.221 35.6384 166.221Z" fill="black"/>
<path d="M45.408 179.981C53.3494 179.981 59.7872 173.543 59.7872 165.602C59.7872 157.66 53.3494 151.222 45.408 151.222C37.4666 151.222 31.0288 157.66 31.0288 165.602C31.0288 173.543 37.4666 179.981 45.408 179.981Z" fill="#006C49"/>
<path opacity="0.1" d="M59.3744 168.904C57.5168 176.61 49.8112 181.426 42.1056 179.568C34.4 177.71 29.584 170.005 31.4416 162.299C32.336 158.378 34.8816 155.075 38.3216 153.08C37.0832 153.768 35.9824 154.662 34.9504 155.694C33.1616 163.4 37.9776 171.174 45.752 172.894C50.7056 174.064 55.8656 172.55 59.3744 168.904Z" fill="black"/>
<path d="M186.31 228.622L204.198 218.302L220.229 227.59L202.41 237.842L186.31 228.622Z" fill="#F0F0F0"/>
<path d="M61.3696 202.341V146.957L146.682 196.149V251.533L61.3696 202.341Z" fill="#F0F0F0"/>
<path d="M61.3696 168.904L146.682 218.165V196.149L61.3696 146.957V168.904Z" fill="#E0E0E0"/>
<path d="M242.589 196.149V142.278L210.597 134.642V128.45L146.682 196.149V251.533L242.589 196.149Z" fill="#FAFAFA"/>
<path d="M210.597 128.45V134.642L247.886 143.861V137.669L210.597 128.45Z" fill="#263238"/>
<path d="M162.643 88.4768L247.886 137.669L210.597 128.45L125.354 79.1888L162.643 88.4768Z" fill="#37474F"/>
<path d="M141.315 205.437L210.597 128.45V122.326L136.018 208.464L141.315 205.437Z" fill="#37474F"/>
<path d="M125.354 73.0656L210.597 122.326L136.086 208.533L50.7056 159.203L125.354 73.0656Z" fill="#455A64"/>
<path d="M98.5904 152.874L109.323 159.066V174.614L98.5904 168.491V152.874Z" fill="#263238"/>
<path d="M109.323 159.066L120.056 152.874V162.299L109.323 174.614V159.066Z" fill="#37474F"/>
<path d="M109.323 142.278L97.4896 149.158V152.254L109.323 159.066L121.157 152.254V149.158L109.323 142.278Z" fill="#F5F5F5"/>
<path d="M97.4896 152.254L109.323 159.066V155.97L97.4896 149.158V152.254Z" fill="#E0E0E0"/>
<path d="M121.157 152.254L109.323 159.066V155.97L121.157 149.158V152.254Z" fill="#EBEBEB"/>
<path d="M101.48 149.158L109.323 144.618L117.235 149.158L109.323 153.699L101.48 149.158Z" fill="#006C49"/>
<path d="M109.323 144.618V153.699L101.48 149.158L109.323 144.618Z" fill="#37474F"/>
<path d="M109.323 144.618L117.235 149.158L109.323 153.699V144.618Z" fill="#263238"/>
<path d="M153.562 210.597L177.573 196.768V215.275L153.562 229.104V210.597Z" fill="#455A64"/>
<path d="M176.472 214.656V197.387L153.562 210.597V227.866L176.472 214.656Z" fill="#E0E0E0"/>
<path d="M177.573 215.275L176.472 214.656L153.562 227.866V229.104L177.573 215.275Z" fill="#37474F"/>
<path d="M153.562 219.885L177.573 205.987V204.749L153.562 218.646V219.885Z" fill="#455A64"/>
<path d="M212.179 176.747L236.19 162.918V181.357L212.179 195.254V176.747Z" fill="#455A64"/>
<path d="M235.09 180.738V163.538L212.179 176.747V194.016L235.09 180.738Z" fill="#E0E0E0"/>
<path d="M236.19 181.357L235.09 180.738L212.179 194.016V195.254L236.19 181.357Z" fill="#37474F"/>
<path d="M212.179 185.966L236.19 172.138V170.899L212.179 184.797V185.966Z" fill="#455A64"/>
<path d="M186.31 228.622V191.677L204.198 181.426V218.302L186.31 228.622Z" fill="#37474F"/>
<path d="M203.579 217.821V181.77L186.31 191.677V227.797L203.579 217.821Z" fill="#455A64"/>
<path d="M204.198 181.426L203.579 181.77V217.821L204.198 218.302V181.426Z" fill="#263238"/>
<path d="M127.211 203.373L114.69 196.149V214.587L127.211 221.88V203.373Z" fill="#455A64"/>
<path d="M115.722 213.968V196.768L127.211 203.373V220.642L115.722 213.968Z" fill="#FAFAFA"/>
<path d="M114.69 214.587L115.722 213.968L127.211 220.642V221.88L114.69 214.587Z" fill="#37474F"/>
<path d="M127.211 212.592L114.69 205.368V204.13L127.211 211.354V212.592Z" fill="#455A64"/>
<path d="M115.722 196.768L127.211 203.373V206.95L115.722 200.346V196.768Z" fill="#F5F5F5"/>
<path d="M89.8528 181.838L77.3312 174.614V193.053L89.8528 200.346V181.838Z" fill="#455A64"/>
<path d="M78.432 192.434V175.234L89.8528 181.838V199.038L78.432 192.434Z" fill="#FAFAFA"/>
<path d="M77.3312 193.053L78.432 192.434L89.8528 199.038V200.346L77.3312 193.053Z" fill="#37474F"/>
<path d="M89.8528 190.989L77.3312 183.834V182.595L89.8528 189.75V190.989Z" fill="#455A64"/>
<path d="M78.432 175.234L89.8528 181.838V185.278L78.432 178.674V175.234Z" fill="#F5F5F5"/>
<path d="M288.891 316.342C305.686 316.342 319.301 308.488 319.301 298.798C319.301 289.109 305.686 281.254 288.891 281.254C272.096 281.254 258.482 289.109 258.482 298.798C258.482 308.488 272.096 316.342 288.891 316.342Z" fill="#E0E0E0"/>
<path d="M250.019 53.0448L255.317 56.072C255.317 55.8656 255.248 55.5904 255.248 55.384V53.8704C255.248 51.1184 257.174 50.0176 259.514 51.3936C260.546 52.0128 261.371 52.8384 262.059 53.8704C262.472 50.4304 265.155 49.192 268.389 51.0496C271.898 53.1136 274.787 58.0672 274.787 62.1264V64.3968C274.787 65.2912 274.65 66.1856 274.237 67.0112L278.64 69.5568C280.016 70.4512 280.91 72.0336 280.979 73.6848C280.979 75.1984 279.947 75.8176 278.64 75.0608L250.088 58.5488C248.712 57.6544 247.818 56.072 247.749 54.4208C247.68 52.9072 248.712 52.288 250.019 53.0448Z" fill="#EBEBEB"/>
<path d="M227.453 68.456L231.443 70.7264C231.443 70.52 231.443 70.3824 231.443 70.176V69.0064C231.443 66.9424 232.888 66.1168 234.677 67.1488C235.434 67.6304 236.122 68.2496 236.603 69.0064C236.878 66.392 238.942 65.4288 241.35 66.8736C244.171 68.7312 245.96 71.8272 246.166 75.1984V76.9184C246.166 77.6064 246.029 78.2944 245.754 78.9136L249.056 80.84C250.088 81.528 250.776 82.6976 250.845 83.936C250.845 85.1056 250.019 85.5184 249.056 84.968L227.453 72.5152C226.421 71.8272 225.733 70.6576 225.664 69.4192C225.664 68.3184 226.49 67.8368 227.453 68.456Z" fill="#EBEBEB"/>
<path d="M258.55 150.259L252.909 147.026C252.565 146.888 252.083 147.026 251.533 147.438C246.304 151.429 239.355 152.667 233.645 150.81C233.301 150.466 232.957 150.122 232.613 149.709L232.544 149.571C232.406 149.365 232.2 149.227 231.994 149.09L231.925 149.021L226.352 145.787C225.733 145.512 225.114 145.787 224.77 146.75C219.334 160.166 207.845 173.789 200.139 177.229C199.589 177.504 199.038 177.848 198.626 178.33C198.075 178.949 197.8 179.706 197.8 180.531L198.901 210.734C198.901 219.472 202.616 228.622 210.115 233.163L215.894 236.534L215.963 236.603C219.128 238.392 222.637 239.286 226.214 239.218C227.04 239.218 227.866 239.218 228.691 239.08C230.342 238.805 231.856 238.048 233.094 236.878C249.882 219.541 258.069 196.08 258.069 183.077L259.17 151.498C259.032 150.878 258.894 150.466 258.55 150.259Z" fill="#006C49"/>
<path d="M259.032 151.566L257.931 183.146C257.931 196.149 249.744 219.61 232.957 236.947C231.718 238.117 230.205 238.874 228.554 239.149C227.728 239.218 226.902 239.286 226.077 239.286C222.499 239.355 218.922 238.461 215.826 236.672L215.757 236.603L215.55 236.466C207.982 231.925 204.336 222.706 204.336 214.037L203.304 183.834C203.304 183.008 203.579 182.251 204.13 181.632C204.542 181.15 205.093 180.738 205.643 180.531C213.349 177.091 224.838 163.538 230.274 150.053C230.686 149.09 231.237 148.814 231.856 149.09L231.925 149.158C232.131 149.296 232.338 149.434 232.475 149.64L232.544 149.778C238.254 156.451 249.538 156.451 257.106 150.672C257.656 150.259 258.138 150.122 258.482 150.259H258.55C258.894 150.466 259.032 150.878 259.032 151.566Z" fill="#006C49"/>
<path opacity="0.4" d="M258.55 150.259C258.206 150.122 257.725 150.259 257.174 150.672C250.088 156.107 239.63 156.451 233.714 150.878C239.424 152.667 246.442 151.498 251.602 147.507C252.152 147.094 252.634 146.957 252.978 147.094L258.55 150.259Z" fill="white"/>
<path opacity="0.4" d="M231.856 149.09C231.237 148.814 230.618 149.09 230.274 150.053C224.838 163.469 213.349 177.091 205.643 180.531C205.093 180.806 204.542 181.15 204.13 181.632C203.992 181.77 203.854 181.976 203.717 182.182L198.144 178.949C198.282 178.742 198.35 178.605 198.557 178.398C198.626 178.33 198.694 178.192 198.832 178.123L198.901 178.054L198.97 177.986C199.314 177.71 199.658 177.504 200.07 177.298C207.776 173.858 219.266 160.304 224.701 146.819C225.114 145.856 225.664 145.581 226.283 145.856L231.856 149.09Z" fill="white"/>
<path opacity="0.15" d="M215.757 236.534L209.978 233.163C202.478 228.691 198.763 219.472 198.763 210.734L197.662 180.531C197.662 179.912 197.8 179.362 198.144 178.88L203.717 182.114C203.373 182.595 203.235 183.214 203.235 183.765L204.336 213.968C204.336 222.706 208.051 231.856 215.55 236.397L215.757 236.534Z" fill="black"/>
<path d="M235.64 208.808L226.696 213.968L228.072 197.8C227.04 197.25 226.352 195.874 226.352 193.81C226.352 190.232 228.485 186.104 231.168 184.59C233.851 183.077 235.984 184.659 235.984 188.237C235.915 190.37 235.296 192.434 234.264 194.222L235.64 208.808Z" fill="#455A64"/>
<path d="M235.571 208.808L227.522 204.13L226.627 213.968L235.571 208.808Z" fill="#37474F"/>
<path d="M231.099 184.659C229.379 185.691 227.797 187.824 226.971 190.163L234.195 194.291C235.296 192.502 235.915 190.438 235.915 188.306C235.984 184.728 233.782 183.077 231.099 184.659Z" fill="#37474F"/>
<path d="M79.7392 271.966V274.65C79.7392 277.814 81.8032 280.979 86 283.387C92.2608 287.034 101.549 287.928 109.254 286.07L116.41 290.198L121.914 288.96L125.698 291.162L125.904 295.702L127.968 296.872L133.059 297.285L136.706 299.349V301.894L141.315 304.578H153.011L157.208 302.17V299.486L119.85 280.635C121.432 279.053 122.395 276.989 122.464 274.787V272.035C121.914 269.421 119.712 268.045 116.203 266.05C107.878 261.234 94.3936 261.234 86.0688 266.05C82.2848 268.182 80.152 269.146 79.7392 271.966ZM91.2288 268.87C93.912 267.494 97.0768 267.494 99.76 268.87C102.099 270.246 102.099 272.448 99.76 273.824C97.0768 275.2 93.912 275.2 91.2288 273.824C88.8208 272.448 88.8208 270.246 91.2288 268.87Z" fill="#006C49"/>
<path opacity="0.1" d="M79.7392 271.966V274.65C79.7392 277.814 81.8032 280.979 86 283.387C92.2608 287.034 101.549 287.928 109.254 286.07L116.41 290.198L121.914 288.96L125.698 291.162L125.904 295.702L127.968 296.872L133.059 297.285L136.706 299.349V301.894L141.315 304.578H153.011L157.208 302.17V299.486L119.85 280.635C121.432 279.053 122.395 276.989 122.464 274.787V272.035C121.914 269.421 119.712 268.045 116.203 266.05C107.878 261.234 94.3936 261.234 86.0688 266.05C82.2848 268.182 80.152 269.146 79.7392 271.966ZM91.2288 268.87C93.912 267.494 97.0768 267.494 99.76 268.87C102.099 270.246 102.099 272.448 99.76 273.824C97.0768 275.2 93.912 275.2 91.2288 273.824C88.8208 272.448 88.8208 270.246 91.2288 268.87Z" fill="black"/>
<path d="M86 280.704C92.2608 284.35 101.549 285.245 109.254 283.387L116.41 287.515L121.914 286.277L125.698 288.478L125.904 293.019L127.968 294.189L133.059 294.602L137.05 296.803L136.706 299.211L141.315 301.894H153.011L157.208 299.486L119.85 277.883C124.253 273.205 123.014 267.219 116.203 263.298C107.878 258.482 94.3936 258.482 86.0688 263.298C77.744 268.114 77.6752 275.888 86 280.704ZM91.2288 266.118C93.912 264.742 97.0768 264.742 99.76 266.118C102.099 267.494 102.099 269.696 99.76 271.072C97.0768 272.448 93.912 272.448 91.2288 271.072C88.8208 269.696 88.8208 267.494 91.2288 266.118Z" fill="#006C49"/>
<path opacity="0.3" d="M101.067 281.942C95.7696 281.942 90.816 280.773 87.1696 278.64C83.936 276.782 82.0784 274.374 82.0784 271.966C82.0784 269.558 83.936 267.15 87.1696 265.293C90.816 263.16 95.7696 261.99 101.067 261.99C106.365 261.99 111.318 263.16 114.965 265.293C118.198 267.15 120.056 269.558 120.056 271.966C120.056 274.374 118.198 276.782 114.965 278.64C111.318 280.773 106.365 281.942 101.067 281.942ZM101.067 263.022C95.976 263.022 91.16 264.123 87.6512 266.187C84.7616 267.907 83.0416 269.971 83.0416 272.035C83.0416 274.099 84.6928 276.163 87.6512 277.883C91.16 279.947 95.976 281.048 101.067 281.048C106.158 281.048 110.974 279.947 114.483 277.883C117.373 276.163 119.093 274.099 119.093 272.035C119.093 269.971 117.442 267.907 114.483 266.187C110.974 264.123 106.227 263.022 101.067 263.022Z" fill="black"/>
<path opacity="0.1" d="M93.4304 283.456V286.208C98.6592 287.378 104.094 287.309 109.323 286.07V283.387C104.026 284.557 98.6592 284.626 93.4304 283.456Z" fill="black"/>
<path opacity="0.1" d="M116.41 287.515V290.198L121.982 288.96V286.277L116.41 287.515Z" fill="black"/>
<path opacity="0.1" d="M125.698 288.41V291.162L125.904 295.702V293.019L125.698 288.41Z" fill="black"/>
<path opacity="0.1" d="M127.968 294.189V296.872L133.059 297.354V294.602L127.968 294.189Z" fill="black"/>
<path opacity="0.1" d="M153.011 301.894H141.315V304.646H153.011V301.894Z" fill="black"/>
<path opacity="0.15" d="M157.208 299.486V302.17L153.011 304.578V301.894L154.869 300.794V301.963L155.832 301.413V300.243L157.208 299.486Z" fill="black"/>
<path d="M155.832 300.243L154.869 300.794V301.963L155.832 301.413V300.243Z" fill="#006C49"/>
<path opacity="0.15" d="M155.832 300.243V301.413L117.51 279.259L118.542 278.64L155.832 300.243Z" fill="black"/>
<path opacity="0.15" d="M118.542 278.64V279.878L117.51 279.259L118.542 278.64Z" fill="black"/>
<path d="M304.99 218.371C305.472 200.483 304.027 196.149 299.28 192.846L297.422 203.235C297.422 203.235 299.624 215.482 299.349 219.541C299.142 223.118 298.798 227.59 297.973 230.48C297.835 230.962 297.491 231.443 297.01 231.718C296.046 232.406 295.152 233.232 294.395 234.195C293.707 234.952 293.088 235.158 293.157 235.365C293.432 235.915 294.12 236.122 294.67 235.915C295.29 235.709 295.84 235.365 296.39 234.952C295.978 236.053 295.358 237.085 294.602 237.979C292.882 240.043 292.813 241.35 296.253 241.419C298.386 241.419 300.106 240.112 301.757 235.365C302.376 233.645 302.926 231.856 303.27 229.998C304.165 225.32 304.922 221.192 304.99 218.371Z" fill="#B16668"/>
<path d="M295.29 191.47C298.317 190.92 301.275 192.434 302.651 195.186C304.646 198.763 305.128 204.886 305.403 211.01C305.403 211.01 301.413 214.312 296.666 212.73L295.29 191.47Z" fill="#006C49"/>
<path opacity="0.7" d="M295.29 191.47C298.317 190.92 301.275 192.434 302.651 195.186C304.646 198.763 305.128 204.886 305.403 211.01C305.403 211.01 301.413 214.312 296.666 212.73L295.29 191.47Z" fill="black"/>
<path d="M301.963 290.061C302.307 290.198 302.376 290.886 302.445 292.262C302.514 293.294 302.72 295.083 301.482 295.496C300.243 295.909 298.454 295.702 297.698 294.67C296.734 293.363 295.771 292.125 294.67 290.886C293.501 289.579 292.194 288.41 291.712 286.552C291.299 284.901 291.643 284.213 292.744 283.731C294.258 283.043 296.666 285.176 297.904 285.52C299.005 285.864 301.619 289.923 301.963 290.061Z" fill="#263238"/>
<path d="M301.963 288.754V290.474C300.656 291.299 299.074 291.368 297.698 290.611C297.629 290.474 297.285 288.203 297.285 288.203L301.963 288.754Z" fill="#B16668"/>
<path d="M288.341 299.762C288.616 300.656 288.891 301.55 289.098 302.514C289.304 303.546 289.579 305.266 289.235 306.022C288.891 306.779 287.515 307.261 285.314 307.261C283.938 307.261 281.736 308.224 280.291 309.05C278.846 309.875 275.544 310.219 273.893 310.082C271.966 309.875 269.971 308.774 269.696 307.949C269.421 307.123 269.765 306.298 274.306 304.44C274.374 304.44 280.566 302.376 282.768 299.968L288.341 299.762Z" fill="#263238"/>
<path d="M288.341 297.904V299.899C288.341 300.587 287.515 301.688 285.314 301.619C283.8 301.55 282.699 301.138 282.768 299.899V298.11L288.341 297.904Z" fill="#B16668"/>
<path d="M303.064 266.462C302.72 263.504 302.032 260.546 301.069 257.725C301.069 257.725 301.688 250.157 301.963 243.002C302.307 235.227 301.963 225.526 302.101 223.6C302.101 223.6 277.126 218.578 276.714 227.522C276.301 236.466 277.677 259.238 278.021 263.16C278.365 267.082 278.984 270.59 279.81 276.92C280.635 283.25 282.837 298.042 282.837 298.042C284.557 298.936 286.69 298.867 288.41 297.904C288.41 297.904 290.198 280.016 289.992 275.475C289.854 272.104 289.304 268.802 288.272 265.568C288.272 265.568 288.754 258.206 289.166 251.808C289.579 245.41 290.061 242.314 290.13 239.493L290.68 239.218C290.68 239.218 291.23 250.294 291.506 254.216C291.781 258.138 292.4 261.922 293.57 269.214C294.533 275.544 297.491 288.96 297.491 288.96C300.312 290.474 302.032 288.754 302.032 288.754C302.032 288.754 303.821 271.966 303.064 266.462Z" fill="#37474F"/>
<path d="M290.061 239.493C290.061 239.493 296.115 236.466 299.142 233.782C299.142 233.782 296.322 237.773 292.606 239.493C292.606 239.493 291.299 253.253 291.299 252.978L290.542 239.424L290.061 239.493Z" fill="#263238"/>
<path d="M284.694 188.65L286.139 196.768L293.501 196.218L291.918 186.998L284.694 188.65Z" fill="#B16668"/>
<path d="M301.275 195.667C300.587 193.466 297.766 191.058 294.946 191.539C290.749 192.227 286.69 193.328 282.63 194.635C280.085 195.53 277.746 197.8 277.47 206.262C277.47 206.262 276.576 225.939 276.576 229.792C281.942 231.925 287.79 232.475 293.432 231.443C301.138 229.723 302.101 226.558 302.101 226.558C302.101 226.558 302.17 212.386 301.963 206.262C301.826 201.034 301.757 197.181 301.275 195.667Z" fill="#006C49"/>
<g opacity="0.15">
<path d="M301.275 195.667C300.587 193.466 297.766 191.058 294.946 191.539C290.749 192.227 286.69 193.328 282.63 194.635C280.085 195.53 277.746 197.8 277.47 206.262C277.47 206.262 276.576 225.939 276.576 229.792C281.942 231.925 287.79 232.475 293.432 231.443C301.138 229.723 302.101 226.558 302.101 226.558C302.101 226.558 302.17 212.386 301.963 206.262C301.826 201.034 301.757 197.181 301.275 195.667Z" fill="black"/>
</g>
<path d="M278.984 178.742C278.984 178.742 277.126 181.701 277.333 181.976C277.539 182.251 278.984 182.458 278.984 182.458V178.742Z" fill="#9A4A4D"/>
<path d="M284.144 170.555C280.291 171.45 279.19 173.238 278.984 179.43C278.709 185.898 279.466 187.962 280.291 188.787C280.91 189.338 284.075 189.406 285.658 188.925C287.653 188.306 292.194 186.586 294.258 183.283C296.666 179.362 297.216 174.202 294.464 172.138C290.68 169.179 285.726 170.142 284.144 170.555Z" fill="#B16668"/>
<path d="M278.984 172.138C279.878 173.445 281.117 174.408 282.63 175.027C283.387 175.853 282.974 179.155 284.282 179.706C284.282 179.706 284.832 177.298 286.896 177.573C288.96 177.848 289.304 180.394 287.997 181.976C286.758 183.558 285.52 183.008 285.52 183.008C285.52 183.008 285.658 186.448 287.24 188.306C287.24 188.306 288.96 188.856 292.125 188.099C294.051 187.618 296.803 185.141 297.904 182.526C300.243 177.022 300.312 172.069 296.803 170.693C296.39 168.216 294.395 167.115 292.056 166.634C287.171 165.602 284.006 168.698 280.222 168.422C278.09 168.285 277.677 169.867 278.984 172.138Z" fill="#263238"/>
<path d="M296.803 171.587L299.142 170.142C298.867 169.454 298.042 169.11 297.354 169.386C296.666 169.661 296.322 170.486 296.597 171.174C296.666 171.312 296.734 171.45 296.803 171.587Z" fill="#263238"/>
<path d="M251.533 209.29C252.771 209.84 266.944 220.366 269.214 219.128C271.485 217.89 282.837 204.611 282.837 204.611C284.832 201.584 284.832 197.662 282.837 194.635C282.837 194.635 279.19 195.323 277.264 198.213C275.338 201.102 267.082 211.422 267.082 211.422C265.018 210.39 263.022 209.358 260.958 208.326C259.307 207.432 257.587 206.606 256.005 205.643C255.523 205.437 255.11 205.162 254.698 204.886C253.872 204.061 254.01 202.134 254.078 201.102C254.078 200.621 254.078 200.139 254.147 199.658C254.216 199.038 254.354 197.594 253.253 198.075C253.046 198.144 252.84 198.35 252.702 198.488C252.565 198.694 252.427 198.97 252.29 199.245C252.083 199.864 252.152 200.552 251.946 201.24C251.946 201.309 251.877 201.446 251.808 201.515C251.739 201.584 251.602 201.653 251.464 201.584C249.882 201.515 248.437 199.314 247.68 198.144C247.405 197.594 246.992 197.112 246.51 196.768C245.685 196.355 244.653 196.974 244.102 197.731C243.414 198.763 243.139 200.002 243.346 201.171C243.483 202.822 244.24 204.336 245.41 205.506C247.267 207.019 249.331 208.326 251.533 209.29Z" fill="#B16668"/>
<path d="M284.006 194.154C282.424 194.36 279.81 194.429 277.264 197.318C274.237 200.69 270.315 206.194 270.315 206.194C271.141 209.496 273.824 212.042 277.195 212.661C277.195 212.661 282.562 207.157 284.075 204.13C285.589 201.102 285.795 196.218 284.006 194.154Z" fill="#006C49"/>
<path opacity="0.7" d="M284.006 194.154C282.424 194.36 279.81 194.429 277.264 197.318C274.237 200.69 270.315 206.194 270.315 206.194C271.141 209.496 273.824 212.042 277.195 212.661C277.195 212.661 282.562 207.157 284.075 204.13C285.589 201.102 285.795 196.218 284.006 194.154Z" fill="black"/>
</g>
<defs>
<clipPath id="clip0_163_729">
<rect width="344" height="344" fill="white"/>
</clipPath>
</defs>
</svg>
