<svg width="227" height="37" viewBox="0 0 227 37" fill="none" xmlns="http://www.w3.org/2000/svg">
<path d="M12.4948 30.9254V20.7112H4.49251V30.9254H0V6.60919H4.49251V16.6467H12.4948V6.60919H16.9873V30.9254H12.4948Z" fill="#006C49"/>
<path d="M76.9209 30.9254V13.1477H76.7454L71.4807 30.9254H67.8305L62.601 13.1477H62.4255V30.9254H58.1787V6.60919H64.6717L69.6556 23.574H69.8662L74.8501 6.60919H81.2379V30.9254H76.9209Z" fill="black"/>
<path d="M93.3047 30.9254V6.60919H97.7972V30.9254H93.3047Z" fill="black"/>
<path d="M121.996 30.9254L118.977 22.0542H114.344V30.9254H109.887V18.7673V6.60919H119.574C121.446 6.60919 122.861 6.9155 123.821 7.52812C124.804 8.11717 125.459 8.95363 125.786 10.0375C126.114 11.1214 126.278 12.5469 126.278 14.314C126.278 15.9634 126.067 17.4125 125.646 18.6613C125.248 19.8865 124.453 20.7701 123.259 21.312L126.734 30.9254H121.996ZM118.1 18.1664C119.223 18.1664 120.042 18.0604 120.557 17.8484C121.071 17.6363 121.399 17.2711 121.539 16.7527C121.703 16.2343 121.785 15.4215 121.785 14.314C121.785 13.183 121.703 12.3701 121.539 11.8753C121.399 11.3805 121.083 11.0271 120.592 10.815C120.1 10.603 119.281 10.497 118.135 10.497H114.344V18.1664H118.1Z" fill="black"/>
<path d="M150.841 30.9254L149.367 25.4825H141.47L140.031 30.9254H135.539L142.383 6.60919H148.595L155.439 30.9254H150.841ZM145.507 10.8857H145.331L142.488 21.5947H148.314L145.507 10.8857Z" fill="black"/>
<path d="M178.664 30.6426C178.033 30.8076 177.237 30.9372 176.278 31.0314C175.318 31.1492 174.418 31.2081 173.575 31.2081C170.978 31.2081 169.071 30.8547 167.854 30.1478C166.661 29.441 165.854 28.2393 165.432 26.5428C165.035 24.8463 164.836 22.2545 164.836 18.7673C164.836 15.2801 165.035 12.7 165.432 11.0271C165.854 9.33063 166.673 8.12895 167.889 7.42209C169.106 6.69166 171.001 6.32645 173.575 6.32645C174.464 6.32645 175.377 6.38535 176.313 6.50316C177.249 6.62097 177.997 6.76235 178.559 6.92728V10.5323C176.781 10.3202 175.459 10.2142 174.593 10.2142C172.838 10.2142 171.621 10.3909 170.943 10.7444C170.264 11.0742 169.82 11.7929 169.609 12.9003C169.422 13.9842 169.328 15.9398 169.328 18.7673C169.328 21.5947 169.422 23.5622 169.609 24.6696C169.82 25.7535 170.264 26.4721 170.943 26.8256C171.621 27.1554 172.838 27.3204 174.593 27.3204C175.95 27.3204 177.307 27.2143 178.664 27.0023V30.6426Z" fill="black"/>
<path d="M189.625 30.9254V6.60919H194.082V26.8962H202.611V30.9254H189.625Z" fill="black"/>
<path d="M212.891 30.9254V6.60919H227V10.497H217.348V16.682H225.666V20.6051H217.348V27.0376H227V30.9254H212.891Z" fill="black"/>
<path d="M24.6091 17.4672C24.6091 25.527 31.0974 32.0607 39.1011 32.0607C47.1049 32.0607 53.5932 25.527 53.5932 17.4672C53.5932 9.40749 47.1049 2.87379 39.1011 2.87379C31.0974 2.87379 24.6091 9.40749 24.6091 17.4672Z" fill="#006C49"/>
<path d="M26.7501 19.9226C25.3151 22.1297 31.543 29.6808 36.4885 30.8327C30.2246 20.5094 32.5855 13.6395 30.8493 14.9638C29.1132 16.288 28.185 17.7156 26.7501 19.9226Z" fill="white"/>
<path d="M32.7873 6.10083C30.2594 5.40856 24.5423 13.2015 25.4926 18.7988C33.3068 9.60979 40.5246 9.74786 38.7374 8.49436C36.9503 7.24086 35.3152 6.7931 32.7873 6.10083Z" fill="white"/>
<path d="M37.645 29.6785C39.2771 31.742 48.4636 28.8617 50.984 23.7819C39.2865 26.5393 33.5469 22.1302 34.252 24.2052C34.9572 26.2803 36.0129 27.615 37.645 29.6785Z" fill="white"/>
<path d="M50.699 22.3253C53.1482 21.389 52.5926 11.6984 48.5566 7.73255C47.5985 19.7919 42.3107 23.9545 44.4882 23.9108C46.6657 23.8671 48.2499 23.2615 50.699 22.3253Z" fill="white"/>
<path d="M47.1098 7.72328C46.9824 5.08836 38.6305 2.55532 33.6377 5.1952C44.8996 8.8234 46.0564 16.2604 46.688 14.1614C47.3196 12.0625 47.2372 10.3582 47.1098 7.72328Z" fill="white"/>
<path d="M44.7641 9.6092H42.8913V13.3361H44.7641V9.6092Z" fill="#006C49"/>
<path d="M38.8337 17.6468H35.6232V20.8799H38.8337V17.6468Z" fill="white"/>
<path d="M42.5794 17.6468H39.3688V20.8799H42.5794V17.6468Z" fill="white"/>
<path d="M42.5793 13.7403H39.3688V16.9733H42.5793V13.7403Z" fill="white"/>
<path d="M38.8337 13.7403H35.6232V16.9733H38.8337V13.7403Z" fill="white"/>
</svg>
